HIERARCHY
ROOT Hips
{
    OFFSET 0.0 0.0 0.0
    CHANNELS 6 Xposition Yposition Zposition Zrotation Xrotation Yrotation
    JOINT LHipJoint
    {
        OFFSET 0.1 0.0 0.0
        CHANNELS 3 Zrotation Xrotation Yrotation
        JOINT LeftHip
        {
            OFFSET 0.12638065218925476 0.0 0.0
            CHANNELS 3 Zrotation Xrotation Yrotation
            JOINT LeftKnee
            {
                OFFSET 0.0 0.0 -0.4810442328453064
                CHANNELS 3 Zrotation Xrotation Yrotation
                JOINT LeftAnkle
                {
                    OFFSET 0.0 0.0 -0.5107405781745911
                    CHANNELS 3 Zrotation Xrotation Yrotation
                    End Site
                    {
                        OFFSET 0.0 -0.1 0.0
                    }
                }
            }
        }
    }
    JOINT lowerback
    {
        OFFSET 0.0 0.0 0.1
        CHANNELS 3 Zrotation Xrotation Yrotation
        JOINT Chest
        {
            OFFSET 0.0 0.0 0.23785249888896942
            CHANNELS 3 Zrotation Xrotation Yrotation
            JOINT Chest2
            {
                OFFSET 0.0 0.0 0.2519071698188782
                CHANNELS 3 Zrotation Xrotation Yrotation
                JOINT LeftCollar
                {
                    OFFSET 0.1 0.0 0.0
                    CHANNELS 3 Zrotation Xrotation Yrotation
                    JOINT LeftShoulder
                    {
                        OFFSET 0.13281404972076416 0.0 0.0
                        CHANNELS 3 Zrotation Xrotation Yrotation
                        JOINT LeftElbow
                        {
                            OFFSET 0.271801233291626 0.0 0.0
                            CHANNELS 3 Zrotation Xrotation Yrotation
                            JOINT LeftWrist
                            {
                                OFFSET 0.22647902369499207 0.0 0.0
                                CHANNELS 3 Zrotation Xrotation Yrotation
                                End Site
                                {
                                    OFFSET 0.1 0.0 0.0
                                }
                            }
                        }
                    }
                }
                JOINT Neck
                {
                    OFFSET 0.0 0.0 0.1
                    CHANNELS 3 Zrotation Xrotation Yrotation
                    JOINT Head
                    {
                        OFFSET 0.0 0.0 0.12097389250993729
                        CHANNELS 3 Zrotation Xrotation Yrotation
                        End Site
                        {
                            OFFSET 0.0 0.0 0.12235970795154572
                        }
                    }
                }
                JOINT RightCollar
                {
                    OFFSET -0.1 0.0 0.0
                    CHANNELS 3 Zrotation Xrotation Yrotation
                    JOINT RightShoulder
                    {
                        OFFSET -0.13281404972076416 0.0 0.0
                        CHANNELS 3 Zrotation Xrotation Yrotation
                        JOINT RightElbow
                        {
                            OFFSET -0.271801233291626 0.0 0.0
                            CHANNELS 3 Zrotation Xrotation Yrotation
                            JOINT RightWrist
                            {
                                OFFSET -0.22647902369499207 0.0 0.0
                                CHANNELS 3 Zrotation Xrotation Yrotation
                                End Site
                                {
                                    OFFSET -0.1 0.0 0.0
                                }
                            }
                        }
                    }
                }
            }
        }
    }
    JOINT RHipJoint
    {
        OFFSET -0.1 0.0 0.0
        CHANNELS 3 Zrotation Xrotation Yrotation
        JOINT RightHip
        {
            OFFSET -0.12638065218925476 0.0 0.0
            CHANNELS 3 Zrotation Xrotation Yrotation
            JOINT RightKnee
            {
                OFFSET 0.0 0.0 -0.4810442328453064
                CHANNELS 3 Zrotation Xrotation Yrotation
                JOINT RightAnkle
                {
                    OFFSET 0.0 0.0 -0.5107405781745911
                    CHANNELS 3 Zrotation Xrotation Yrotation
                    End Site
                    {
                        OFFSET 0.0 -0.1 0.0
                    }
                }
            }
        }
    }
}
MOTION
Frames: 7
Frame Time: 0.03333333333333333
1.8489003196009435e-05 0.9295310974121094 -2.6535293727647513e-05 -37.21982791118469 -67.5097744408739 -41.9969967220348 -7.951386703658792e-16 -9.939233379573492e-17 2.3854160110976376e-15 0.7944437556949838 -12.810499165108936 -23.387216392089304 -113.26774665642411 60.9477516508101 94.1187776364618 0.0 0.0 6.460501696722769e-16 -7.951386703658792e-16 -9.939233379573492e-17 2.3854160110976376e-15 0.047851666713956714 -0.7804593173340452 5.810640738680255 -5.349098883194903 4.5805662056192005e-06 1.0668101599428544e-06 0.0 -1.9878466759146985e-16 0.0 -37.02777334093536 6.973810324071475 61.470547751734166 -18.86262981849556 5.719408025130614e-06 2.299213957059022e-06 0.0 -7.951386703658792e-16 0.0 0.0 -1.9878466759146985e-16 0.0 0.5136334447993918 -25.20125069123688 -8.439133367072696 0.0 -1.9878466759146985e-16 0.0 29.68812657492235 42.49002546343969 -39.01350537678338 116.73473653472668 1.8644668518342218e-06 -5.924909382370972e-07 -6.3611093629270335e-15 2.3854160110976376e-15 1.3241718894150476e-31 -7.951386703658792e-16 -9.939233379573492e-17 2.3854160110976376e-15 0.9031560281554252 -14.373627320985605 3.816835131268342 178.0690163678524 82.73384059823765 -176.5360049497939 -2.1383899683089072e-33 -1.5778532990072911e-15 -1.5530052155583574e-16
1.689772034296766e-05 0.929533064365387 -2.5881374313030392e-05 -31.25743530077685 -68.76498306792179 -36.74624715292705 7.95138670365879e-16 0.0 0.0 0.9973435667088608 -16.971230907382434 -21.610656039473916 -132.92720415472004 57.417780136711926 108.225265641025 3.975693351829396e-16 -2.758691436281349e-33 -7.951386703658792e-16 7.95138670365879e-16 0.0 0.0 0.03997337418758141 -0.7005414066240598 7.080808369081294 -6.993861390943234 3.3367713037398445e-07 3.413153370230072e-08 1.5902773407317582e-15 1.9878466759146975e-16 -1.5902773407317582e-15 -28.83609183449451 5.131173946666908 60.97351877467513 -22.546417495532452 -4.862791616695311e-06 -1.6233971401762108e-06 6.3611093629270335e-15 -1.5902773407317582e-15 3.1805546814635168e-15 1.5902773407317582e-15 1.9878466759146975e-16 -1.5902773407317582e-15 -2.1169357723986635 -24.104280256463213 -9.713963400262296 1.5902773407317582e-15 1.9878466759146975e-16 -1.5902773407317582e-15 29.0059347571899 40.74275245852005 -37.194856539901636 116.88926523379047 -2.2532514097660524e-07 1.052441454979025e-06 0.0 0.0 0.0 7.95138670365879e-16 0.0 0.0 0.7243230467469463 -12.41401400039008 3.5750150421277933 178.8439938006277 76.28055091188504 178.176585206105 -4.138037154422024e-33 3.1805546814635168e-15 1.4908850069360235e-16
5.877664079889655e-06 0.9295371174812317 -3.056062996620312e-05 -32.86871338208053 -67.4431800064586 -39.574669275718804 7.951386703658792e-16 0.0 0.0 1.0903198722282317 -18.208815558913347 -20.34791920982519 -138.66051337619493 56.159327517105496 115.53505987141531 -1.0560435465796832e-15 -4.1018360644073455e-32 4.450912947790253e-15 7.951386703658792e-16 0.0 0.0 0.1458811907725689 -2.5196407286051556 8.320715052335792 -6.9721389362473785 5.978765150350473e-07 -2.2409359879359093e-07 1.590277340731758e-15 -6.361109362927032e-15 8.827812596100317e-32 -35.86863360143065 9.566353333916544 60.02553662559077 -23.44187552746945 1.1148203093810666e-06 -2.6050069372620815e-08 -1.1034765745125397e-31 3.975693351829396e-15 3.1805546814635168e-15 1.590277340731758e-15 -6.361109362927032e-15 8.827812596100317e-32 -2.7506989369194446 -23.059774383007106 -10.463871836096814 1.590277340731758e-15 -6.361109362927032e-15 8.827812596100317e-32 31.5829570434846 40.35118810459205 -36.186427283407355 116.67422043234706 1.8864140046477357e-06 -1.7043045784325454e-06 0.0 0.0 0.0 7.951386703658792e-16 0.0 0.0 0.7096841660316995 -11.981720361691078 3.550674118564204 179.25305502737567 73.85400626046362 179.15631720338249 -3.975693351829396e-16 -4.969616689786745e-17 -2.981770013872047e-16
5.257421435089782e-06 0.9295344352722168 -2.9103030101396143e-05 -32.70624775003098 -67.45897210206887 -40.01458448358226 3.9756933518293955e-16 2.758691436281349e-33 7.951386703658791e-16 1.4079074389771968 -19.449470030917528 -20.32254892664295 -140.57591978299567 54.2171235090042 115.92157057847243 6.823821279185439e-32 3.1867667023257502e-15 -2.4537482405822054e-15 3.9756933518293955e-16 2.758691436281349e-33 7.951386703658791e-16 0.17897640307451648 -2.5715931587878265 8.83735592223366 -6.9967282250432925 -8.57854831999743e-08 -1.586782607271651e-06 -1.5902773407317584e-15 1.987846675914698e-16 -1.5902773407317584e-15 -29.910580262073527 7.491674251832993 59.55490086136509 -25.123203437445177 -5.0210680797798455e-06 -3.3414657921090103e-06 0.0 0.0 0.0 -1.5902773407317584e-15 1.987846675914698e-16 -1.5902773407317584e-15 -2.994103034814916 -22.15670597012279 -10.204583595387142 -1.5902773407317584e-15 1.987846675914698e-16 -1.5902773407317584e-15 31.398232788639163 39.49532120923542 -39.167159728618245 113.56545905440879 -2.9369150698476514e-06 -3.034334659747162e-06 0.0 0.0 6.3611093629270335e-15 3.9756933518293955e-16 2.758691436281349e-33 7.951386703658791e-16 0.9075427140455609 -12.750570318038138 3.3413475852554435 -177.79309324957714 72.69974862428731 177.05488755314073 7.951386703658794e-16 -4.969616689786746e-17 -4.969616689786746e-16
4.186362275504507e-06 0.9295371770858765 -2.742501237662509e-05 -33.613235466522426 -66.85754064825188 -42.57092722478459 3.975693351829397e-16 -6.3611093629270335e-15 1.5902773407317584e-15 1.8914815476797737 -19.792674152534822 -19.61137640892551 -140.20264936144773 53.638704460127784 115.70837131030066 -1.2424041724466863e-15 3.1929787231879836e-15 -4.969616689786745e-16 3.975693351829397e-16 -6.3611093629270335e-15 1.5902773407317584e-15 0.40119769676258593 -4.369689016201766 10.909736972840241 -6.454353793945082 -2.7817429470863562e-08 1.7475282795348276e-07 1.5902773407317584e-15 -6.3611093629270335e-15 -1.5902773407317584e-15 -30.039740922451827 8.491736099614274 58.96349436900131 -25.05676132671456 -1.6795455637295984e-06 -1.0685085911024623e-06 6.361109362927033e-15 3.1805546814635164e-15 -1.7655625192200634e-31 1.5902773407317584e-15 -6.3611093629270335e-15 -1.5902773407317584e-15 -2.728342788341327 -19.662567100131724 -9.935943900382272 1.5902773407317584e-15 -6.3611093629270335e-15 -1.5902773407317584e-15 32.201473105948764 40.68935005579668 -41.99887938668257 112.4403563800062 -6.524129377688875e-07 -2.256872356275796e-06 0.0 0.0 0.0 3.975693351829397e-16 -6.3611093629270335e-15 1.5902773407317584e-15 1.2475881973111826 -13.31696760009621 4.531885937515861 -177.55152948310229 71.98401038566892 177.14470026846595 0.0 0.0 -6.957463365701443e-16
4.986883141100407e-06 0.9295443892478943 -2.692823181860149e-05 -30.348216662151483 -66.76165834751095 -40.36153917690681 3.975693351829396e-16 4.9696166897867443e-17 -1.3914926731402886e-15 2.286578597738383 -20.615067637616143 -18.732408783971213 -141.336837275215 52.944810867998775 116.17765067407296 2.2363275104040355e-16 6.267671510262264e-33 3.2116147857746847e-15 3.975693351829396e-16 4.9696166897867443e-17 -1.3914926731402886e-15 0.6920124966231573 -6.503845660083196 12.166341254663125 -6.994314779065308 1.0530487069759888e-06 -3.713381713021598e-07 1.5902773407317584e-15 -2.2069531490250793e-32 -1.5902773407317584e-15 -27.5317403890852 7.061078347513902 58.882996855630395 -24.663319659116425 -4.06895832455487e-06 -2.4909144160742923e-06 6.3611093629270335e-15 -7.95138670365879e-16 3.1805546814635168e-15 1.5902773407317584e-15 -2.2069531490250793e-32 -1.5902773407317584e-15 -3.9696322168496843 -17.684156429920566 -9.904816517762576 1.5902773407317584e-15 -2.2069531490250793e-32 -1.5902773407317584e-15 32.99195273774677 41.26072823190829 -44.25302109077668 112.85282917654526 1.2427867221485756e-06 5.777125839631163e-06 6.3611093629270335e-15 3.1805546814635168e-15 -1.7655625192200634e-31 3.975693351829396e-16 4.9696166897867443e-17 -1.3914926731402886e-15 1.4535173358315738 -13.419802979420988 6.031720955670262 -179.57386411359803 73.11209245040463 179.72103935262223 0.0 0.0 -9.939233379573489e-17
8.476272341795266e-07 0.92955482006073 -2.900228719227016e-05 -26.77610005654209 -65.53800962509584 -36.9786414590696 9.93923337957349e-16 -6.3611093629270335e-15 1.9878466759146985e-16 2.710926705333575 -22.063699267484612 -18.028737719061887 -144.8659670110886 50.63946460323143 117.69697526519111 3.9756933518293955e-16 3.1805546814635168e-15 1.9381505090168305e-15 9.93923337957349e-16 -6.3611093629270335e-15 1.9878466759146985e-16 1.2071061519329673 -10.243496360005727 12.397126853107698 -6.591958103572853 -1.7615443549416143e-06 7.231941450939428e-07 -1.5902773407317588e-15 -6.361109362927035e-15 -8.827812596100317e-32 -17.55142993223212 2.4367420563005373 59.65910442736399 -25.731803435670773 -3.6230400521285257e-06 -1.0419027944014012e-06 0.0 0.0 0.0 -1.5902773407317588e-15 -6.361109362927035e-15 -8.827812596100317e-32 -4.794453767476553 -15.880462668226256 -9.258939492731479 -1.5902773407317588e-15 -6.361109362927035e-15 -8.827812596100317e-32 33.815195887403235 39.946281066710185 -43.89484733656689 111.16503404331097 -1.2029065950866553e-06 -2.830656139216374e-06 0.0 0.0 6.3611093629270335e-15 9.93923337957349e-16 -6.3611093629270335e-15 1.9878466759146985e-16 1.7595201336506627 -14.709057900892345 6.435175294694186 -178.88368094898746 71.22394419700267 179.70795954610784 7.951386703658791e-16 3.1805546814635164e-15 1.9878466759146975e-16
